<svg xmlns="http://www.w3.org/2000/svg" viewBox="0 0 64 64" role="img" aria-label="Serenfermera">
  <defs>
    <linearGradient id="g" x1="0" y1="0" x2="1" y2="1">
      <stop offset="0%" stop-color="#2aa7a1"/>
      <stop offset="100%" stop-color="#17313b"/>
    </linearGradient>
  </defs>
  <rect x="4" y="4" width="56" height="56" rx="16" fill="url(#g)"/>
  <path d="M32 16c-1.8 0-3.2 1.4-3.2 3.2v9.6h-9.6c-1.8 0-3.2 1.4-3.2 3.2s1.4 3.2 3.2 3.2h9.6v9.6c0 1.8 1.4 3.2 3.2 3.2s3.2-1.4 3.2-3.2v-9.6h9.6c1.8 0 3.2-1.4 3.2-3.2s-1.4-3.2-3.2-3.2h-9.6v-9.6c0-1.8-1.4-3.2-3.2-3.2z" fill="#fff"/>
</svg>